HIERARCHY
ROOT SimulationBone
{
	OFFSET 0.000000 0.000000 0.000000
	CHANNELS 6 Xposition Yposition Zposition Zrotation Yrotation Xrotation 
	JOINT Hips
	{
		OFFSET 0.000000 0.000000 0.000000
		CHANNELS 6 Xposition Yposition Zposition Zrotation Yrotation Xrotation 
		JOINT LeftUpLeg
		{
			OFFSET 0.103456 1.857826 10.548504
			CHANNELS 3 Zrotation Yrotation Xrotation
			JOINT LeftLeg
			{
				OFFSET 43.499996 -0.000038 0.000006
				CHANNELS 3 Zrotation Yrotation Xrotation
				JOINT LeftFoot
				{
					OFFSET 42.372192 0.000011 -0.000004
					CHANNELS 3 Zrotation Yrotation Xrotation
					JOINT LeftToe
					{
						OFFSET 17.300018 0.000006 0.000004
						CHANNELS 3 Zrotation Yrotation Xrotation
						End Site
						{
							OFFSET 0.000000 0.000000 0.000000
						}
					}
				}
			}
		}
		JOINT RightUpLeg
		{
			OFFSET 0.103455 1.857819 -10.548502
			CHANNELS 3 Zrotation Yrotation Xrotation
			JOINT RightLeg
			{
				OFFSET 43.500038 -0.000031 0.000011
				CHANNELS 3 Zrotation Yrotation Xrotation
				JOINT RightFoot
				{
					OFFSET 42.372261 -0.000008 0.000014
					CHANNELS 3 Zrotation Yrotation Xrotation
					JOINT RightToe
					{
						OFFSET 17.299999 -0.000004 0.000004
						CHANNELS 3 Zrotation Yrotation Xrotation
						End Site
						{
							OFFSET 0.000000 0.000000 0.000000
						}
					}
				}
			}
		}
		JOINT Spine
		{
			OFFSET 6.901965 -2.603737 -0.000000
			CHANNELS 3 Zrotation Yrotation Xrotation
			JOINT Spine1
			{
				OFFSET 12.588105 0.000013 0.000001
				CHANNELS 3 Zrotation Yrotation Xrotation
				JOINT Spine2
				{
					OFFSET 12.343203 0.000010 -0.000000
					CHANNELS 3 Zrotation Yrotation Xrotation
					JOINT Neck
					{
						OFFSET 25.832893 -0.000038 0.000001
						CHANNELS 3 Zrotation Yrotation Xrotation
						JOINT Head
						{
							OFFSET 11.766606 0.000028 0.000001
							CHANNELS 3 Zrotation Yrotation Xrotation
							End Site
							{
								OFFSET 0.000000 0.000000 0.000000
							}
						}
					}
					JOINT LeftShoulder
					{
						OFFSET 19.745897 -1.480375 6.000107
						CHANNELS 3 Zrotation Yrotation Xrotation
						JOINT LeftArm
						{
							OFFSET 11.284126 -0.000009 -0.000017
							CHANNELS 3 Zrotation Yrotation Xrotation
							JOINT LeftForeArm
							{
								OFFSET 33.000046 0.000006 0.000030
								CHANNELS 3 Zrotation Yrotation Xrotation
								JOINT LeftHand
								{
									OFFSET 25.200006 0.000034 0.000015
									CHANNELS 3 Zrotation Yrotation Xrotation
									End Site
									{
										OFFSET 0.000000 0.000000 0.000000
									}
								}
							}
						}
					}
					JOINT RightShoulder
					{
						OFFSET 19.746096 -1.480394 -6.000075
						CHANNELS 3 Zrotation Yrotation Xrotation
						JOINT RightArm
						{
							OFFSET 11.284135 -0.000006 -0.000006
							CHANNELS 3 Zrotation Yrotation Xrotation
							JOINT RightForeArm
							{
								OFFSET 33.000095 0.000018 0.000006
								CHANNELS 3 Zrotation Yrotation Xrotation
								JOINT RightHand
								{
									OFFSET 25.199783 0.000116 0.000436
									CHANNELS 3 Zrotation Yrotation Xrotation
									End Site
									{
										OFFSET 0.000000 0.000000 0.000000
									}
								}
							}
						}
					}
				}
			}
		}
	}
}
MOTION
Frames: 15
Frame Time: 0.033333
-54.848084 0.000000 528.310940 0.000000 53.061449 0.000000 -5.329587 84.634041 2.685370 86.618219 2.414873 175.602674 158.116038 8.864299 167.597269 -49.032798 6.187945 -2.119449 103.767710 1.590431 10.944603 21.454553 0.003086 -0.000000 170.326353 15.395398 -164.854416 -83.633945 -0.988154 13.749297 72.324634 -3.284199 21.465193 21.454560 -0.003106 -0.000017 10.697999 -0.517289 1.959943 11.363131 -1.224714 3.859674 11.045743 -1.201271 3.866993 -23.981795 1.732714 1.826329 -10.655670 -2.620230 3.372092 176.344952 -73.147289 2.413099 0.070427 57.371629 10.398092 -102.724884 0.839842 2.812189 0.821783 -9.863313 26.182130 125.640032 71.203049 -54.355974 -32.020883 -56.467831 -6.321917 -92.408730 2.364185 -2.619840 -3.397322 11.164918 -35.530115 
-48.304661 0.000000 527.857021 0.000000 52.053987 0.000000 -6.071829 82.848213 2.301768 87.336633 2.446726 176.875776 158.869148 6.890002 168.704006 -55.283671 7.525987 -3.157841 108.969705 1.734551 7.453767 21.454553 0.003094 0.000002 163.688912 19.685300 -168.250358 -82.042682 -0.526803 12.771664 76.036494 -2.743527 23.310413 21.454557 -0.003108 -0.000018 10.626412 -0.781253 1.838306 11.213985 -1.737116 3.592473 10.896425 -1.715269 3.602888 -26.368635 3.076211 1.581058 -10.071944 -2.252480 3.720857 176.780049 -72.496625 1.983868 -10.639197 55.707440 2.295932 -103.428803 0.887265 2.839982 0.880929 -6.266982 27.520348 132.925412 70.748069 -47.008094 -23.274577 -56.142772 -10.447071 -95.995952 2.025676 -2.756852 -5.592557 13.481235 -34.174643 
-41.857467 0.000000 527.249220 0.000000 51.139776 0.000000 -5.982891 82.600471 2.196155 88.743495 3.758259 176.073446 163.921221 1.633105 167.920310 -55.866450 7.257852 -2.138613 112.030013 0.989429 4.099375 21.454550 0.003093 -0.000001 159.433595 18.367606 -175.099631 -75.010975 0.967457 14.387157 78.945772 -5.035732 21.320429 21.454553 -0.003109 -0.000019 10.706502 -0.831658 2.068777 11.368712 -1.862694 4.046141 11.051310 -1.838110 4.057302 -28.646589 3.118791 2.294586 -9.384375 -1.135084 4.115614 176.546019 -73.156619 2.206059 -18.232592 55.659802 -3.809483 -103.972206 0.989699 2.856818 2.212871 -4.447763 28.142370 135.331060 69.947892 -44.629115 -13.876398 -56.440148 -13.600302 -96.943607 1.713643 -2.777512 -6.060213 16.179456 -29.313693 
-35.502232 0.000000 526.490214 0.000000 50.316998 0.000000 -5.145201 83.825668 2.407397 89.998695 5.440816 175.088147 172.361873 -3.722306 167.720172 -50.209759 5.681363 -0.849433 112.119905 0.309964 1.021516 21.454551 0.003093 0.000001 158.670349 14.474895 178.443637 -64.226625 2.493632 15.453443 80.132988 -6.386703 20.019436 21.454557 -0.003107 -0.000020 10.559856 -0.697651 1.894854 11.082360 -1.573714 3.714358 10.764873 -1.551125 3.723785 -28.824857 2.748924 4.145131 -9.124024 0.111131 5.283298 177.801995 -73.912769 0.896984 -18.549790 56.795236 -5.027439 -106.124406 1.633393 2.906709 3.567248 -4.717276 26.891612 134.943392 70.112807 -45.009878 -7.261918 -57.292812 -17.313365 -94.588503 1.842038 -2.680965 -5.786577 18.000031 -26.724604 
-29.234686 0.000000 525.582676 0.000000 49.583573 0.000000 -4.023316 86.137978 2.852431 90.504504 7.028348 176.284424 -179.439820 -8.175601 170.134125 -41.885975 3.476423 -0.430557 106.318206 0.116070 -2.191386 21.454557 0.003092 0.000000 160.124236 10.795302 174.884767 -53.300921 3.272559 13.661779 79.859152 -5.121377 19.938938 21.454565 -0.003113 -0.000016 10.123850 -0.394205 1.046780 10.227279 -0.879446 2.054626 9.909350 -0.866899 2.059904 -27.345823 2.639371 5.993053 -9.581786 0.927026 6.701335 179.086057 -74.050316 -0.424080 -12.743305 57.316304 -1.064491 -109.582312 2.598410 2.990530 3.988198 -5.557186 23.646610 135.385715 71.156269 -44.472314 -3.432762 -58.101557 -21.798508 -90.643051 2.299274 -2.536390 -5.686660 17.674093 -28.695312 
-23.050560 0.000000 524.529283 0.000000 48.937238 0.000000 -2.955688 88.882111 3.416844 90.620686 7.906578 179.073646 -174.187145 -12.506101 171.654757 -35.967230 2.132206 0.774356 94.738139 -0.976414 -3.124053 21.454560 0.003087 0.000000 162.284844 7.888899 173.126704 -44.029462 4.102027 11.921469 77.722621 -3.603137 19.748462 21.454560 -0.003110 -0.000016 9.644773 -0.195079 0.066925 9.276550 -0.394929 0.118005 8.958445 -0.394074 0.120386 -26.160729 2.736778 6.887158 -10.064679 1.552218 7.396905 178.873065 -74.376833 -0.212902 -6.725122 56.727924 4.689448 -112.653711 3.327809 3.072271 3.821314 -6.039910 18.699571 137.777155 71.953140 -41.974245 0.473032 -58.363741 -26.805718 -87.189591 3.185207 -2.444589 -4.937604 15.308069 -31.497069 
-16.945582 0.000000 523.332711 0.000000 48.375609 0.000000 -2.067407 91.244987 3.893854 90.759323 8.162816 -178.233095 -172.110467 -16.513507 169.765718 -34.380225 2.088617 2.694954 81.468359 -2.663205 -2.941479 21.454555 0.003084 0.000003 163.766107 5.574494 171.929590 -37.518267 4.911726 11.627281 74.516708 -2.665889 20.579153 21.454558 -0.003109 -0.000018 9.312329 -0.168768 -0.515169 8.613187 -0.298815 -1.041435 8.295144 -0.304961 -1.039612 -26.241348 2.471540 7.050893 -9.898834 2.457627 7.148576 177.379999 -75.437431 1.291997 -3.818551 56.148786 9.501952 -114.506100 3.725577 3.123598 3.696673 -6.186305 12.465839 140.646094 71.994654 -39.050418 5.715195 -57.953923 -31.130944 -84.605738 3.820419 -2.374790 -3.229956 12.634796 -31.495792 
-10.915485 0.000000 521.995634 0.000000 47.896230 0.000000 -1.391971 92.695267 4.146629 91.072499 7.490050 -176.258611 -172.319211 -18.306003 167.993571 -37.067577 4.250167 3.405734 71.919611 -3.852740 -3.906651 21.454551 0.003089 0.000003 164.589541 4.596207 172.312094 -33.347401 5.504401 11.249390 72.658507 -1.953398 20.995470 21.454555 -0.003102 -0.000016 9.170359 -0.304154 -0.717100 8.331509 -0.555988 -1.454208 8.013502 -0.564625 -1.450812 -26.959206 1.516954 7.148604 -9.399828 3.433393 6.474446 174.796999 -76.479315 3.905031 -3.104491 55.921672 12.954065 -115.524508 3.980109 3.149030 3.582829 -6.073169 6.319484 142.498824 71.791401 -37.177894 10.681993 -57.246670 -34.109709 -82.176403 4.309254 -2.302417 -1.658838 11.571684 -29.232957 
-4.955997 0.000000 520.520728 0.000000 47.496620 0.000000 -0.871672 93.120644 4.241855 91.658488 5.958304 -174.836531 -174.101536 -17.198906 169.993628 -42.848447 6.987351 0.185556 65.194388 -2.022191 -4.247262 21.454548 0.003098 0.000001 165.696496 4.498592 174.917839 -30.666877 5.295300 10.921093 73.348063 -1.639462 21.689278 21.454555 -0.003110 -0.000017 9.221831 -0.528359 -0.732071 8.437703 -1.002012 -1.500720 8.119674 -1.010928 -1.494640 -27.458650 0.197108 7.358009 -9.120210 3.970788 5.837625 172.035035 -76.785595 6.716063 -3.215052 55.777548 15.405886 -116.108203 4.119529 3.163950 3.275333 -5.737028 2.038221 143.238479 71.741076 -36.427509 13.979321 -56.540968 -35.632615 -79.765415 4.905073 -2.239269 -0.861550 12.166477 -27.046043 
0.937150 0.000000 518.910668 0.000000 47.174299 0.000000 -0.832468 92.208473 4.166367 92.673169 5.006345 -173.654231 -176.094899 -15.265702 174.962863 -50.432850 8.755776 -3.535536 65.757523 0.828308 -3.776489 21.454555 0.003083 0.000002 166.390361 3.689300 178.497910 -30.531127 4.465900 11.451273 74.045890 -2.816543 19.401315 21.454557 -0.003102 -0.000016 9.483712 -0.535428 -0.609098 8.960540 -1.022148 -1.257827 8.642457 -1.029588 -1.251626 -27.220136 -1.143200 7.523336 -9.412659 4.050668 5.277463 170.668942 -76.642816 8.114992 -4.118152 55.887545 16.859728 -116.222308 4.077980 3.171578 2.833999 -5.180212 0.427357 143.175491 71.809447 -36.486526 15.342232 -55.607640 -35.484639 -78.165812 5.456589 -2.208843 -0.676073 12.771925 -26.042063 
6.768228 0.000000 517.168131 0.000000 46.926817 0.000000 -1.255946 90.715492 4.077153 94.098044 5.240845 -172.657149 -178.243144 -14.549392 179.784635 -58.963336 8.920338 -3.813630 72.110747 1.432660 -3.084172 21.454555 0.003090 -0.000004 167.383129 0.849696 -178.237256 -34.058103 4.003663 13.993578 78.186016 -6.497064 14.576501 21.454557 -0.003108 -0.000017 9.904322 -0.235419 -0.337913 9.797219 -0.441430 -0.694521 9.479134 -0.445473 -0.691839 -26.224544 -2.314778 7.530968 -10.303448 3.738692 4.790945 171.624021 -76.423745 7.146970 -6.447459 56.199152 16.902396 -115.717406 3.848946 3.166142 2.330476 -4.485477 1.728687 143.235214 71.918313 -36.417397 14.266640 -54.335791 -32.837309 -78.250506 5.647419 -2.225743 -0.928858 12.087695 -26.445745 
12.541505 0.000000 515.295792 0.000000 46.751770 0.000000 -1.859566 87.846848 4.298161 95.146241 4.660557 -172.467085 178.408038 -13.364589 -177.927944 -68.739318 9.190961 -3.458042 78.306712 1.103734 -3.867648 21.454562 0.003083 0.000002 168.346527 -0.732187 -176.526157 -41.444683 4.093295 13.060487 90.282793 -7.323704 13.021341 21.454563 -0.003115 -0.000018 10.290477 -0.069154 0.028631 10.568128 -0.140671 0.050837 10.250019 -0.140228 0.051688 -25.146704 -2.959166 7.354107 -11.140759 2.689008 4.649490 174.567027 -75.760028 4.160888 -8.826511 55.913172 16.737607 -114.523913 3.432432 3.144516 1.643754 -4.155012 6.056062 144.158902 72.049152 -35.465614 11.471123 -52.350702 -28.290041 -80.015495 5.400597 -2.284564 -1.369234 10.500476 -28.308209 
18.261251 0.000000 513.296325 0.000000 46.646810 0.000000 -2.817388 85.780403 4.323743 95.009634 4.998789 -172.855531 173.532526 -12.073900 -177.384726 -76.143953 9.383180 -4.536152 81.719067 1.856912 -4.289317 21.454551 0.003081 0.000005 168.826526 -2.837497 -175.243133 -46.626635 3.795102 11.874572 97.342476 -7.190171 12.441646 21.454557 -0.003102 -0.000016 10.417442 0.267516 0.492173 10.824278 0.487751 1.007195 10.506218 0.493953 1.004241 -24.760288 -2.959772 7.073906 -11.204088 0.996984 4.924333 177.576053 -74.351254 1.118896 -9.470403 55.210151 17.480232 -112.915916 2.885352 3.113960 0.716205 -4.863775 11.860472 145.135892 72.159118 -34.460797 6.829076 -50.075498 -22.062814 -82.539708 4.815157 -2.353542 -1.581844 9.260557 -30.627699 
23.931737 0.000000 511.172407 0.000000 46.609655 0.000000 -3.886535 85.192368 3.912652 93.685766 5.000149 -174.238905 168.163492 -9.130799 -178.438310 -79.251088 9.580164 -6.788586 85.385479 3.925415 -2.279286 21.454553 0.003092 -0.000002 169.990964 -4.110700 -174.473385 -47.628606 3.743864 11.017218 100.158789 -6.887412 11.653500 21.454558 -0.003108 -0.000017 10.279334 0.405724 0.995843 10.552416 0.718843 2.024538 10.234514 0.731194 2.020171 -25.115338 -2.634283 6.802750 -10.664851 -0.475438 5.262351 179.396011 -72.986978 -0.719011 -6.136072 54.835115 20.513389 -111.740597 2.502913 3.090121 0.031762 -6.718251 15.284990 144.800120 72.266564 -34.795429 1.901453 -47.948246 -16.217355 -84.988249 4.045434 -2.407323 -1.335183 8.817940 -31.695759 
29.557232 0.000000 508.926713 0.000000 46.638090 0.000000 -4.610428 86.292847 3.137591 92.093264 4.067739 -176.314975 164.024288 -4.970392 179.481539 -76.850468 9.494966 -7.118950 87.203593 4.202891 -2.196496 21.454551 0.003083 0.000004 173.197806 -4.409502 -175.308799 -44.080648 3.867117 10.347807 98.781365 -6.384265 10.569173 21.454560 -0.003112 -0.000019 10.044102 0.172521 1.490678 10.078193 0.214485 2.990654 9.760568 0.232661 2.989317 -25.765015 -2.310843 6.559405 -10.053031 -1.019812 5.322951 -179.323010 -72.658876 -2.029041 0.929753 54.714678 25.784341 -111.924807 2.607511 3.090793 0.398818 -9.051507 13.479331 143.006211 72.470609 -36.609186 -1.725588 -46.718169 -12.415605 -87.364028 3.161157 -2.450657 -0.682133 8.682608 -30.925324 
